<svg width="152" height="140" viewBox="0 0 152 140" fill="none" xmlns="http://www.w3.org/2000/svg">
<path d="M58.4 0.826109C59.3125 1.22611 60.4857 1.09278 60.8768 0.692775C61.3982 0.292775 60.6161 -0.107225 59.1821 0.0261084C57.7482 0.0261084 57.3571 0.426108 58.4 0.826109Z" fill="url(#paint0_linear_469_133)"/>
<path d="M15.6428 11.4927C15.6428 13.6261 16.2946 16.1594 16.9464 17.2261C17.8589 18.6927 18.25 17.7594 18.25 13.4927C18.25 10.4261 17.7285 7.89272 16.9464 7.89272C16.2946 7.89272 15.6428 9.49272 15.6428 11.4927Z" fill="url(#paint1_linear_469_133)"/>
<path d="M16.2946 21.2261C16.6857 21.8928 17.3374 22.5594 17.7285 22.5594C17.9892 22.5594 18.2499 21.8928 18.2499 21.2261C18.2499 20.4261 17.5982 19.8928 16.816 19.8928C16.1642 19.8928 15.9035 20.4261 16.2946 21.2261Z" fill="url(#paint2_linear_469_133)"/>
<path d="M134.184 54.3333C134.575 55 135.227 55.6666 135.618 55.6666C135.878 55.6666 136.139 55 136.139 54.3333C136.139 53.5333 135.487 53 134.705 53C134.053 53 133.793 53.5333 134.184 54.3333Z" fill="url(#paint3_linear_469_133)"/>
<path d="M76.9107 2.55949C77.6929 4.02616 78.9964 5.22617 79.9089 5.22617C80.8214 5.22617 80.0393 6.42617 78.2143 7.89283C73.6518 11.6262 69.8714 10.8262 69.35 6.1595C69.0893 4.1595 68.1768 2.55949 67.3946 2.55949C65.5696 2.55949 61.3982 5.22617 63.0929 5.22617C63.7446 5.22617 63.4839 6.1595 62.5714 7.22617C61.3982 8.69283 59.5732 8.9595 55.9232 8.42617C51.2304 7.62617 43.0179 9.7595 43.0179 11.7595C43.0179 12.1595 43.9304 13.6262 44.8429 14.8262C46.4071 17.0928 46.7982 16.9595 50.0571 13.8928C53.8375 10.2928 55.4018 9.7595 56.7054 11.8928C57.0964 12.5595 58.5304 13.2262 59.8339 13.2262C63.3536 13.2262 67.0036 18.0262 65.8304 20.8262C64.7875 23.0928 64.7875 23.0928 64.2661 20.8262C63.875 19.3595 62.4411 18.5595 59.8339 18.5595C56.0536 18.5595 54.75 20.2928 57.3571 21.8928C59.8339 23.4928 58.6607 25.2262 55.0107 25.2262C52.4036 25.2262 49.275 27.0928 44.3214 31.8928C40.5411 35.4928 36.8911 38.5595 36.2393 38.5595C35.7179 38.5595 35.1964 40.2928 35.1964 42.5595C35.1964 47.2262 32.9804 48.0262 32.3286 43.4928C31.1554 35.3595 17.7286 42.4262 18.5107 50.9595C18.7714 54.5595 19.4232 55.0928 21.9 54.8262C24.1161 54.4262 24.7679 55.0928 24.7679 57.2262C24.7679 58.8262 25.2893 59.7595 25.9411 59.3595C27.2446 58.4262 28.6786 61.6262 28.6786 65.3595C28.6786 68.2928 34.675 70.2928 36.8911 68.0262C40.2804 64.5595 50.9696 66.8262 57.6179 72.5595C59.7036 74.4262 62.5714 75.8928 64.0054 75.8928C65.4393 75.8928 67.9161 77.3595 69.4804 79.0928C71.0446 80.8262 76.2589 84.0262 81.2125 86.2928C86.0357 88.5595 89.9464 90.9595 89.9464 91.7595C89.9464 92.4262 88.5125 94.8262 86.6875 96.9595C84.8625 99.2262 83.4286 102.426 83.4286 104.293C83.4286 107.759 78.9964 112.426 74.4339 113.893C73.1304 114.293 71.4357 116.026 70.5232 117.759C69.6107 119.493 66.3518 122.026 63.3536 123.359C59.8339 125.093 57.3571 127.359 56.0536 130.293L53.9679 134.693L51.2304 131.626C46.9286 126.826 45.625 123.226 45.625 116.559C45.625 109.759 44.4518 106.826 39.3679 100.959C37.4125 98.8262 34.5446 94.5595 32.9804 91.6262C30.3732 86.4262 30.3732 85.6262 32.0679 82.1595C34.4143 77.6262 34.0232 71.2262 31.2857 71.2262C30.2429 71.2262 28.1571 69.2262 26.4625 66.8262C24.8982 64.4262 21.2482 60.5595 18.3804 58.4262C13.5571 54.9595 13.0357 54.0262 13.1661 48.8262C13.1661 45.7595 14.2089 40.0262 15.3821 36.0262C17.8589 28.1595 20.5964 26.2928 29.4607 26.4262H33.3714L33.5018 18.1595C33.5018 10.5595 33.2411 9.62617 29.5911 6.9595C18.9018 -1.17383 0 4.1595 0 15.2262C0 19.2262 4.17143 24.4262 8.99464 26.5595L13.0357 28.1595L9.77678 33.7595C-5.73571 60.9595 -1.825 94.2928 19.5536 117.626C46.4071 146.959 91.25 146.693 118.625 117.093C124.752 110.426 130.748 101.359 127.75 103.226C126.446 104.026 126.316 103.759 127.098 101.759C131.791 90.4262 133.095 73.4928 129.705 70.5595C128.011 69.0928 126.837 69.2262 122.927 71.0928C118.364 73.3595 118.234 73.2262 115.236 70.4262C109.63 65.0928 107.545 51.7595 110.282 39.2262C111.325 34.6928 112.107 33.7595 115.105 33.4928C117.191 33.2262 120.059 33.8928 121.623 34.9595C123.97 36.5595 124.752 36.5595 126.055 35.0928C127.359 33.7595 126.707 32.1595 122.666 26.9595C119.929 23.4928 115.627 18.8262 113.28 16.5595C110.152 13.7595 110.673 14.5595 114.714 19.0928C119.277 24.2928 119.798 25.2262 116.93 23.3595C112.237 20.4262 110.412 21.7595 111.455 27.3595C112.368 32.6928 110.021 33.4928 106.241 29.2262C103.895 26.5595 103.895 26.4262 106.371 24.6928C108.327 23.0928 108.587 22.4262 107.284 21.0928C106.371 20.1595 105.589 18.0262 105.589 16.4262C105.589 14.8262 106.371 13.2262 107.284 12.8262C109.63 12.0262 93.8571 4.15949 85.1232 1.89283C75.6071 -0.640507 75.2161 -0.640507 76.9107 2.55949ZM27.1143 7.89283C30.8946 10.2928 32.0679 12.8262 31.2857 16.5595C31.1554 17.2262 31.025 19.2262 31.025 20.6928C31.025 22.9595 29.9821 23.7595 26.2018 24.4262C11.3411 26.9595 2.60714 23.3595 2.60714 14.6928C2.60714 12.2928 7.03929 7.49283 10.4286 6.1595C14.8607 4.5595 22.9429 5.3595 27.1143 7.89283ZM99.0714 13.2262C100.636 14.1595 100.636 14.8262 99.3321 16.1595C98.0286 17.4928 97.3768 17.4928 96.4643 15.8928C93.9875 12.0262 95.2911 10.6928 99.0714 13.2262ZM40.4107 55.8928C40.4107 57.8928 39.7589 57.4928 37.0214 54.4262C34.5446 51.4928 34.5446 51.4928 37.5429 53.0928C39.1071 53.8928 40.4107 55.2262 40.4107 55.8928ZM46.9286 58.5595C46.9286 59.2262 46.4071 59.8928 45.7554 59.8928C44.9732 59.8928 44.0607 59.2262 43.6696 58.5595C43.2786 57.7595 43.8 57.2262 44.8429 57.2262C46.0161 57.2262 46.9286 57.7595 46.9286 58.5595Z" fill="url(#paint4_linear_469_133)"/>
<path d="M127.75 37.4928C127.75 38.0261 126.968 38.5594 126.055 38.5594C125.012 38.5594 122.927 40.1594 121.102 42.0261C118.495 44.8261 117.973 46.8261 117.973 53.0928V60.6928L122.536 60.8261C140.786 61.7594 141.829 61.6261 145.87 58.6928C152.518 53.7594 152.909 44.6928 146.652 40.4261C143.132 38.1594 127.75 35.6261 127.75 37.4928ZM143.654 41.3594C144.957 42.0261 146.912 44.0261 148.086 45.8928C149.78 48.4261 149.78 49.6261 148.477 52.1594C145.087 58.8261 137.657 60.9594 127.75 58.4261C122.145 56.9594 121.362 56.2928 120.711 52.5594C119.537 46.4261 120.971 43.8928 126.968 41.0928C132.312 38.5594 138.7 38.6928 143.654 41.3594Z" fill="url(#paint5_linear_469_133)"/>
<path d="M131.009 44.0261C130.488 44.8261 130.488 45.7594 131.009 46.2928C131.4 46.6928 132.313 46.2928 132.964 45.2261C133.877 43.6261 134.529 43.6261 135.702 44.8261C136.875 46.0261 136.875 46.9594 135.571 48.5594C133.095 51.6261 134.789 52.2928 137.527 49.2261C139.352 47.0928 139.482 46.2928 138.179 44.5594C136.354 42.2928 132.182 41.8928 131.009 44.0261Z" fill="url(#paint6_linear_469_133)"/>
<defs>
<linearGradient id="paint0_linear_469_133" x1="59.4248" y1="1.06763" x2="59.4248" y2="-4.51803e-05" gradientUnits="userSpaceOnUse">
<stop stop-color="#881219"/>
<stop offset="1" stop-color="#CF1E26"/>
</linearGradient>
<linearGradient id="paint1_linear_469_133" x1="16.9464" y1="17.8738" x2="16.9464" y2="7.89272" gradientUnits="userSpaceOnUse">
<stop/>
<stop offset="1" stop-color="#CF1E26"/>
</linearGradient>
<linearGradient id="paint2_linear_469_133" x1="17.1804" y1="22.5594" x2="17.1804" y2="19.8928" gradientUnits="userSpaceOnUse">
<stop/>
<stop offset="1" stop-color="#CF1E26"/>
</linearGradient>
<linearGradient id="paint3_linear_469_133" x1="135.07" y1="55.6666" x2="135.07" y2="53" gradientUnits="userSpaceOnUse">
<stop stop-color="#881219"/>
<stop offset="1" stop-color="#CF1E26"/>
</linearGradient>
<linearGradient id="paint4_linear_469_133" x1="25.8079" y1="125.06" x2="133.308" y2="15.0595" gradientUnits="userSpaceOnUse">
<stop offset="0.28125" stop-color="#3D080B"/>
<stop offset="1" stop-color="#F9020D"/>
</linearGradient>
<linearGradient id="paint5_linear_469_133" x1="134.542" y1="61.3401" x2="134.542" y2="36.8445" gradientUnits="userSpaceOnUse">
<stop stop-color="#3D080B"/>
<stop offset="1" stop-color="#CF1E26"/>
</linearGradient>
<linearGradient id="paint6_linear_469_133" x1="134.831" y1="51.2197" x2="134.831" y2="42.6243" gradientUnits="userSpaceOnUse">
<stop stop-color="#881219"/>
<stop offset="1" stop-color="#CF1E26"/>
</linearGradient>
</defs>
</svg>
