<svg width="30" height="30" viewBox="0 0 30 30" fill="none" xmlns="http://www.w3.org/2000/svg">
<path d="M15 30C23.2843 30 30 23.2843 30 15C30 6.71573 23.2843 0 15 0C6.71573 0 0 6.71573 0 15C0 23.2843 6.71573 30 15 30Z" fill="#3C5A99"/>
<path d="M16.166 22.5V15.668H18.4688L18.8145 12.9932H16.166V11.291C16.166 10.5176 16.3799 9.99316 17.4873 9.99316H18.8906V7.6084C18.6475 7.57617 17.8096 7.50293 16.834 7.50293C14.7979 7.50293 13.4033 8.74512 13.4033 11.0273V12.9961H11.1094V15.6709H13.4033V22.5H16.166Z" fill="white"/>
</svg>
