<svg width="30" height="30" viewBox="0 0 30 30" fill="none" xmlns="http://www.w3.org/2000/svg">
<path d="M15 30C23.2843 30 30 23.2843 30 15C30 6.71573 23.2843 0 15 0C6.71573 0 0 6.71573 0 15C0 23.2843 6.71573 30 15 30Z" fill="#0A66C2"/>
<path d="M20.3057 20.3086H18.0791V16.8223C18.0791 15.9902 18.0615 14.9209 16.9189 14.9209C15.7588 14.9209 15.5801 15.8262 15.5801 16.7607V20.3086H13.3535V13.1367H15.4922V14.1152H15.5215C15.8203 13.5527 16.5469 12.958 17.6309 12.958C19.8867 12.958 20.3027 14.4434 20.3027 16.374L20.3057 20.3086ZM10.8428 12.1553C10.125 12.1553 9.55078 11.5752 9.55078 10.8633C9.55078 10.1514 10.1279 9.57129 10.8428 9.57129C11.5576 9.57129 12.1348 10.1514 12.1348 10.8633C12.1348 11.5752 11.5547 12.1553 10.8428 12.1553ZM11.959 20.3086H9.72656V13.1367H11.959V20.3086ZM21.4189 7.5H8.61035C7.99805 7.5 7.5 7.9834 7.5 8.58398V21.4453C7.5 22.043 7.99512 22.5293 8.61035 22.5293H21.416C22.0283 22.5293 22.5293 22.0459 22.5293 21.4453V8.58398C22.5293 7.9834 22.0283 7.5 21.4189 7.5Z" fill="white"/>
</svg>
