<svg width="30" height="30" viewBox="0 0 30 30" fill="none" xmlns="http://www.w3.org/2000/svg">
<path d="M15 30C23.2843 30 30 23.2843 30 15C30 6.71573 23.2843 0 15 0C6.71573 0 0 6.71573 0 15C0 23.2843 6.71573 30 15 30Z" fill="#1DA1F2"/>
<path d="M22.793 10.3945C22.2422 10.6377 21.6533 10.8018 21.0322 10.8779C21.665 10.4971 22.1514 9.89648 22.3799 9.18164C21.7881 9.52734 21.1289 9.7793 20.4316 9.91992C19.8721 9.32227 19.0781 8.94727 18.1934 8.94727C16.5 8.94727 15.126 10.3213 15.126 12.0117C15.126 12.2549 15.1553 12.4893 15.2051 12.7119C12.6562 12.5918 10.3945 11.3672 8.88281 9.51562C8.61621 9.9668 8.4668 10.4883 8.4668 11.0596C8.4668 12.126 9.00879 13.0635 9.83203 13.6143C9.32813 13.5967 8.85645 13.459 8.44336 13.2305V13.2686C8.44336 14.7568 9.49805 15.9961 10.9043 16.2773C10.6465 16.3477 10.374 16.3828 10.0957 16.3828C9.89941 16.3828 9.71191 16.3652 9.52441 16.3301C9.91699 17.5488 11.0479 18.4365 12.3955 18.46C11.3496 19.2832 10.0195 19.7725 8.59277 19.7725C8.34961 19.7725 8.10645 19.7578 7.86328 19.7314C9.22852 20.6016 10.8369 21.1084 12.5742 21.1084C18.2139 21.1084 21.2988 16.4355 21.2988 12.3896C21.2988 12.2607 21.2988 12.1289 21.29 11.9971C21.8877 11.5664 22.4121 11.0244 22.8223 10.4092L22.793 10.3945Z" fill="white"/>
</svg>
